# xmcd CD database file
# Copyright (C) 1993-1998 Ti Kan
#
# Track frame offsets:
#  150
#  20136
#  33314
#  56189
#
# Disc length: 934 seconds
#
# Revision: 1
# Processed by: cddbd v1.4b41PL1 Copyright (c) Steve Scherf et al.
# Submitted via: CDWizzard Release:4.35
#
DISCID=3203a404
DTITLE=New Meanies - Brother Cane - Advance Via Virgin
DYEAR=1900
DGENRE=
TTITLE0=Brother Cane - I Lie In The Bed I Make
TTITLE1=New Meanies - Three Seeds
TTITLE2=Brother Cane - I Lie In The Bed I Make (live)
TTITLE3=New Meanies - Letting Time Pass (unplugged version)
EXTD=Promo Disc
EXTT0=
EXTT1=
EXTT2=
EXTT3=
PLAYORDER=
